<?xml version="1.0" standalone="no"?>
<!DOCTYPE svg PUBLIC "-//W3C//DTD SVG 20010904//EN" "http://www.w3.org/TR/2001/REC-SVG-20010904/DTD/svg10.dtd">
<svg version="1.0" xmlns="http://www.w3.org/2000/svg"
    width="250.000000pt" height="250.000000pt" viewBox="0 0 250.000000 250.000000"
    preserveAspectRatio="xMidYMid meet">

    <g transform="translate(0.000000,250.000000) scale(0.100000,-0.100000)"
        fill="#A61F22" stroke="none">
        <path
            d="M1135 2494 c-561 -61 -1004 -464 -1111 -1011 -24 -119 -24 -347 0
-466 98 -502 478 -884 988 -993 115 -25 361 -25 478 0 256 55 461 165 641 345
180 180 291 387 345 643 22 103 25 341 5 448 -91 511 -491 920 -993 1015 -84
16 -282 26 -353 19z m224 -54 c208 -22 409 -95 577 -211 400 -277 594 -798
473 -1272 -108 -425 -441 -758 -866 -866 -405 -103 -839 17 -1137 315 -363
363 -454 911 -227 1369 125 251 295 421 546 546 130 64 264 104 400 118 115
12 122 12 234 1z" />
        <path
            d="M1238 2328 c-4 -29 -35 -35 -54 -11 -14 17 -15 17 -9 -3 4 -15 0 -24
-12 -29 -16 -6 -15 -8 6 -16 19 -7 21 -12 11 -24 -6 -8 -9 -19 -6 -24 4 -5 -3
-16 -15 -25 -20 -14 -18 -43 2 -31 5 4 9 -5 9 -19 0 -36 19 -33 27 4 3 17 11
30 18 30 8 0 10 -9 7 -25 -2 -15 0 -25 7 -25 6 0 12 14 13 30 0 17 1 36 2 43
1 7 -8 11 -19 9 -18 -2 -17 0 5 17 19 15 22 23 13 32 -12 12 -1 31 23 40 8 3
9 12 3 27 -11 28 -27 28 -31 0z m-18 -52 c0 -3 -4 -8 -10 -11 -5 -3 -10 -1
-10 4 0 6 5 11 10 11 6 0 10 -2 10 -4z" />
        <path
            d="M1326 2303 c-3 -21 -6 -64 -6 -95 0 -60 -11 -72 -39 -45 -7 6 -3 -5
9 -25 23 -40 49 -50 52 -20 1 9 2 53 3 97 0 44 5 90 9 103 6 16 5 22 -7 22 -9
0 -17 -14 -21 -37z" />
        <path
            d="M897 2250 c-8 -36 -27 -40 -27 -5 0 16 -6 25 -15 25 -18 0 -18 -13 0
-65 14 -40 12 -51 -42 -172 -3 -7 -1 -13 5 -13 9 0 52 89 52 109 0 6 4 11 9
11 4 0 11 -19 14 -41 7 -54 17 -63 51 -48 20 10 29 10 38 1 36 -36 37 15 2 92
-14 31 -29 56 -33 56 -5 0 -20 -9 -35 -21 -14 -11 -26 -15 -26 -9 0 21 29 80
39 80 6 0 11 7 11 15 0 8 -8 15 -19 15 -13 0 -20 -9 -24 -30z m62 -124 c13
-34 12 -38 -5 -50 -21 -16 -42 -10 -25 7 16 16 13 30 -4 23 -8 -3 -15 -1 -15
4 0 6 5 10 10 10 6 0 10 5 10 11 0 5 -4 7 -10 4 -11 -7 -14 18 -3 29 13 13 28
-1 42 -38z" />
        <path d="M1276 2243 c-9 -40 3 -67 15 -35 5 12 5 32 0 45 -8 21 -9 20 -15 -10z" />
        <path
            d="M1585 2200 c-22 -25 -32 -25 -39 -2 -3 9 -4 0 -1 -20 2 -21 0 -38 -6
-38 -5 0 -9 -7 -9 -15 0 -34 35 -6 65 53 20 40 15 50 -10 22z" />
        <path
            d="M1645 2201 c-3 -6 -4 -15 -1 -20 3 -5 -5 -24 -18 -44 -30 -43 -19
-72 12 -32 12 15 26 24 32 20 5 -3 10 -3 10 2 0 4 10 19 21 33 l20 25 -12 -25
c-6 -14 -27 -50 -45 -81 -34 -56 -43 -89 -24 -89 13 0 102 189 94 201 -4 6
-18 -1 -36 -18 l-29 -28 3 29 c3 29 -14 46 -27 27z" />
        <path d="M810 2174 c0 -26 10 -30 28 -12 17 17 15 25 -8 31 -16 4 -20 0 -20
-19z" />
        <path d="M1606 2183 c-9 -9 -7 -41 3 -47 4 -3 13 5 19 18 8 19 8 25 -3 29 -7
3 -16 3 -19 0z" />
        <path
            d="M560 2052 c0 -5 9 -17 20 -27 22 -20 25 -46 10 -75 -10 -18 -11 -18
-35 6 -24 24 -55 32 -55 15 0 -5 7 -14 15 -21 11 -9 12 -17 4 -31 -8 -16 -6
-19 10 -19 15 0 20 -8 23 -32 5 -55 32 -42 39 18 9 71 15 79 46 54 20 -15 29
-17 39 -9 24 20 16 39 -17 39 -27 0 -30 3 -27 28 2 19 -2 27 -12 27 -8 0 -21
8 -28 18 -14 18 -32 23 -32 9z" />
        <path
            d="M1883 1996 c-22 -20 -26 -27 -15 -37 9 -10 15 -10 24 -1 14 14 62 16
53 2 -3 -5 -15 -10 -26 -10 -12 0 -19 -5 -16 -12 3 -7 -14 -32 -36 -55 -51
-53 -27 -60 30 -10 34 30 43 33 86 30 50 -3 63 11 32 37 -9 8 -13 21 -9 36 6
23 -9 34 -20 16 -3 -5 -19 -7 -36 -4 -25 3 -28 7 -19 18 20 25 -17 16 -48 -10z
m107 -56 c0 -5 -2 -10 -4 -10 -3 0 -8 5 -11 10 -3 6 -1 10 4 10 6 0 11 -4 11
-10z" />
        <path
            d="M1062 1960 c-126 -33 -225 -92 -328 -194 -150 -150 -214 -305 -214
-516 0 -131 23 -230 80 -339 128 -245 371 -392 650 -392 554 0 903 578 648
1074 -32 63 -63 103 -132 173 -104 103 -203 161 -332 194 -103 27 -270 26
-372 0z m403 -64 c202 -69 350 -214 428 -418 29 -78 31 -91 31 -223 1 -129 -1
-147 -28 -223 -68 -200 -229 -360 -429 -429 -74 -25 -95 -28 -217 -28 -122 0
-143 3 -216 28 -392 134 -576 581 -393 952 85 173 246 303 441 355 108 29 274
23 383 -14z" />
        <path
            d="M1050 1820 c0 -5 -9 -10 -20 -10 -13 0 -17 -5 -14 -14 3 -8 -4 -24
-16 -36 -19 -19 -30 -22 -71 -18 -78 8 -82 -9 -20 -84 44 -54 48 -63 32 -66
-13 -2 -21 -14 -26 -38 l-6 -36 -62 7 c-56 7 -60 6 -48 -9 8 -9 38 -23 67 -32
44 -13 111 -15 411 -12 331 3 361 4 396 22 46 24 52 50 8 35 -16 -6 -42 -9
-58 -7 -23 2 -29 8 -31 35 -2 23 -9 33 -24 35 -19 3 -16 9 30 65 45 54 49 63
36 74 -9 7 -34 12 -56 10 -45 -3 -88 20 -88 48 0 10 -9 21 -20 24 -13 3 -20 0
-20 -9 0 -12 -32 -14 -197 -12 -182 3 -198 4 -195 21 2 9 0 17 -3 17 -3 0 -5
-4 -5 -10z m120 -195 l0 -35 -100 0 -100 0 0 28 c0 16 3 32 7 35 3 4 48 7 100
7 l93 0 0 -35z m120 0 c0 -33 -2 -35 -35 -35 -33 0 -35 2 -35 35 0 33 2 35 35
35 33 0 35 -2 35 -35z m248 -2 l3 -33 -100 0 -101 0 0 35 0 36 98 -3 97 -3 3
-32z m-5 -56 c-2 -5 -430 -11 -559 -7 -3 0 -2 5 1 10 8 12 561 9 558 -3z" />
        <path
            d="M870 1436 c0 -13 -3 -38 -6 -55 -6 -30 -9 -32 -48 -29 -28 2 -41 8
-41 18 0 10 -13 16 -42 18 l-43 3 0 -40 0 -41 560 0 560 0 0 40 0 40 -45 0
c-38 0 -45 -3 -45 -20 0 -17 -7 -20 -40 -20 -33 0 -40 3 -40 20 0 17 -7 20
-45 20 -38 0 -45 -3 -45 -20 0 -17 -7 -20 -40 -20 -33 0 -40 3 -40 20 0 17 -7
20 -39 20 -49 0 -71 -8 -71 -26 0 -9 -12 -14 -35 -14 -28 0 -35 4 -35 20 0 17
-7 20 -41 20 -32 0 -42 -4 -46 -20 -4 -13 -14 -20 -30 -20 -22 0 -24 3 -21 43
l3 42 95 0 c90 0 95 -1 106 -24 l12 -24 4 24 c3 23 8 24 76 27 43 2 79 -2 87
-8 9 -8 20 -7 39 1 20 9 29 9 41 -1 13 -10 15 -9 15 9 l0 21 -380 0 -380 0 0
-24z m64 -2 c9 -3 16 -15 16 -25 0 -15 -7 -19 -35 -19 -28 0 -35 4 -35 19 0
25 24 36 54 25z m190 0 c18 -7 23 -84 6 -84 -5 0 -10 9 -10 20 0 17 -7 20 -45
20 -38 0 -45 -3 -45 -20 0 -16 -7 -20 -35 -20 -34 0 -35 1 -35 39 0 22 5 42
13 44 18 8 133 8 151 1z" />
        <path
            d="M692 1118 l3 -163 77 -3 c72 -3 76 -2 71 17 -3 11 -10 19 -17 18 -7
-1 -11 18 -11 55 0 46 5 62 24 82 79 84 211 32 211 -84 0 -33 -5 -50 -15 -54
-8 -3 -15 -12 -15 -21 0 -12 13 -15 58 -15 48 0 59 3 59 16 0 9 -9 19 -20 22
-18 5 -19 11 -14 84 4 44 14 91 23 106 39 66 112 87 187 54 58 -26 73 -55 82
-158 7 -77 6 -81 -14 -87 -11 -3 -21 -12 -21 -21 0 -13 12 -16 60 -16 47 0 60
3 60 15 0 9 -7 18 -15 21 -24 10 -20 95 7 129 48 61 136 66 188 10 29 -31 43
-135 17 -135 -8 0 -17 -9 -20 -20 -5 -19 0 -20 68 -20 57 0 74 3 79 16 3 9 6
83 6 165 l0 149 -560 0 -560 0 2 -162z" />
        <path d="M1173 953 c15 -2 37 -2 50 0 12 2 0 4 -28 4 -27 0 -38 -2 -22 -4z" />
        <path d="M735 900 c8 -14 1022 -14 1030 0 4 7 -170 10 -515 10 -345 0 -519 -3
-515 -10z" />
        <path
            d="M825 850 c4 -6 74 -10 177 -10 l171 0 44 -45 c24 -25 43 -41 43 -36
0 6 16 26 35 46 l36 35 169 0 c108 0 171 4 175 11 5 7 -48 9 -175 7 l-182 -3
-32 -36 c-31 -33 -34 -34 -45 -17 -6 10 -26 27 -44 38 -29 18 -51 20 -205 20
-113 0 -171 -3 -167 -10z" />
        <path
            d="M1080 710 c-22 -17 -23 -19 -7 -25 11 -5 17 -18 17 -37 0 -53 25 -26
28 30 3 57 -1 61 -38 32z" />
        <path
            d="M1166 714 c-9 -8 -16 -19 -16 -23 0 -13 24 -31 43 -31 10 0 16 -4 13
-9 -3 -5 -15 -7 -26 -4 -11 3 -20 0 -20 -6 0 -18 29 -25 56 -13 45 21 26 102
-25 102 -5 0 -17 -7 -25 -16z m41 -30 c-9 -9 -28 6 -21 18 4 6 10 6 17 -1 6
-6 8 -13 4 -17z" />
        <path
            d="M1288 719 c-22 -13 -24 -72 -3 -89 42 -35 92 28 60 76 -17 26 -30 29
-57 13z m38 -64 c-3 -9 -10 -13 -16 -10 -12 7 -13 48 -3 59 11 11 27 -30 19
-49z" />
        <path
            d="M1403 723 c-15 -5 -18 -33 -4 -33 6 0 13 5 16 10 4 6 11 7 17 4 7 -5
5 -11 -6 -19 -15 -11 -15 -13 -1 -19 9 -3 13 -11 10 -16 -5 -8 -11 -7 -20 0
-20 16 -40 3 -24 -16 14 -17 53 -18 67 -1 11 14 11 66 -1 85 -8 12 -32 15 -54
5z" />
        <path
            d="M287 1783 c-4 -3 -7 -19 -7 -34 0 -24 10 -35 58 -65 31 -20 70 -47
85 -60 48 -40 55 -26 8 15 -31 28 -42 44 -37 56 5 13 13 15 38 10 18 -4 35
-11 36 -16 5 -12 52 -11 52 1 0 5 -32 19 -70 31 -39 11 -86 32 -106 45 -37 25
-46 28 -57 17z m66 -47 c32 -14 37 -19 27 -31 -17 -21 -30 -19 -30 5 0 21 -15
27 -25 10 -4 -6 -11 -8 -16 -5 -11 7 -12 48 -1 43 4 -2 24 -12 45 -22z" />
        <path
            d="M2093 1703 c-20 -8 -15 -23 8 -23 21 0 79 -53 79 -73 0 -6 -14 2 -30
18 -31 29 -31 29 -37 7 -5 -22 -33 -32 -33 -12 0 6 -5 10 -11 10 -5 0 -9 -10
-7 -22 5 -36 -28 -35 -47 2 -21 41 -27 35 -14 -17 12 -45 36 -59 66 -38 13 10
22 10 31 3 18 -15 28 -1 15 21 -10 15 -7 18 18 18 21 0 38 -9 54 -29 31 -37
51 -28 29 13 -17 34 -14 48 6 24 18 -22 47 -19 61 7 10 18 9 20 -5 15 -25 -10
-93 21 -120 54 -24 28 -37 33 -63 22z" />
        <path d="M2190 1695 c0 -8 6 -15 13 -15 8 0 14 7 14 15 0 8 -6 15 -14 15 -7 0
-13 -7 -13 -15z" />
        <path
            d="M303 1675 c-10 -17 -13 -17 -28 -5 -14 12 -18 12 -26 -1 -14 -22 -11
-26 21 -33 19 -3 34 -14 40 -28 5 -14 9 -17 10 -8 1 9 5 6 10 -7 7 -17 18 -23
40 -23 27 0 30 3 30 31 0 16 -4 28 -9 24 -5 -3 -12 4 -16 15 -8 25 -21 26 -34
3 -10 -19 -16 -12 -23 32 -4 20 -4 20 -15 0z m67 -75 c6 -11 8 -20 6 -20 -3 0
-10 9 -16 20 -6 11 -8 20 -6 20 3 0 10 -9 16 -20z" />
        <path d="M2225 1670 c-8 -13 -1 -24 14 -19 6 3 7 10 2 18 -6 10 -10 10 -16 1z" />
        <path d="M230 1615 c-12 -14 -11 -18 1 -26 25 -15 41 -10 37 13 -4 27 -21 33
-38 13z" />
        <path
            d="M281 1556 c2 -3 30 -18 63 -35 64 -34 90 -32 55 5 -22 24 -46 33 -34
14 9 -15 -7 -12 -29 5 -17 13 -67 22 -55 11z" />
        <path
            d="M2243 1309 c9 -5 17 -21 17 -35 0 -25 -2 -26 -58 -22 -51 3 -58 1
-54 -14 3 -12 18 -17 63 -20 l59 -3 0 46 c0 34 -5 49 -16 53 -24 9 -31 7 -11
-5z" />
        <path
            d="M230 1284 c0 -17 5 -20 30 -16 27 4 30 2 30 -23 0 -25 -3 -27 -30
-23 -26 4 -30 1 -30 -18 0 -21 2 -21 43 -12 23 5 52 7 65 5 18 -3 22 0 22 21
0 20 -3 23 -12 14 -22 -22 -48 -14 -48 14 0 23 3 26 29 22 23 -3 27 -1 24 13
-4 13 -18 18 -64 21 -54 3 -59 1 -59 -18z" />
        <path
            d="M2155 1165 c-21 -20 -25 -32 -20 -53 12 -51 75 -71 108 -34 19 21 23
42 5 24 -16 -16 -70 -15 -94 2 -15 12 -17 18 -8 33 15 24 47 28 84 9 17 -8 30
-11 30 -7 0 16 -27 40 -52 46 -21 5 -33 1 -53 -20z" />
        <path
            d="M340 1160 c-8 -5 -32 -12 -52 -15 -30 -5 -39 -11 -44 -31 -4 -14 -4
-28 0 -31 3 -4 6 1 6 10 0 17 12 22 73 33 27 4 37 11 37 25 0 21 1 21 -20 9z" />
        <path
            d="M345 1071 c-18 -7 -17 -8 7 -13 19 -4 25 -1 21 9 -3 7 -6 13 -7 12 0
0 -10 -4 -21 -8z" />
        <path d="M259 1057 c5 -5 21 -7 37 -5 27 3 26 4 -8 9 -22 3 -34 1 -29 -4z" />
        <path
            d="M2120 1018 c-25 -28 -25 -48 1 -82 29 -37 79 -34 101 8 9 17 8 19 -3
9 -32 -31 -120 3 -106 40 9 25 72 22 97 -3 20 -20 20 -20 20 -1 0 24 -36 51
-67 51 -12 0 -31 -10 -43 -22z" />
        <path
            d="M321 1005 c-25 -8 -48 -12 -51 -10 -4 3 -5 -7 -2 -21 2 -14 7 -22 11
-17 6 9 79 33 100 33 6 0 11 -7 11 -15 0 -9 -9 -15 -24 -15 -14 0 -28 -4 -31
-10 -3 -5 -18 -10 -32 -10 -21 0 -24 -2 -13 -15 17 -21 41 -19 47 4 4 17 8 18
24 8 28 -17 43 3 35 47 -8 40 -11 41 -75 21z" />
        <path
            d="M2072 894 c-7 -13 -8 -23 -4 -22 14 4 52 -14 47 -22 -3 -4 3 -6 13
-3 11 2 26 -2 34 -11 14 -14 16 -13 21 3 3 15 -5 23 -36 37 -22 10 -45 24 -52
31 -10 9 -15 7 -23 -13z" />
        <path
            d="M364 881 c-44 -22 -50 -29 -44 -46 5 -11 9 -15 9 -9 1 11 89 50 104
46 4 -1 3 7 -3 18 -6 11 -12 20 -13 19 -1 -1 -25 -13 -53 -28z" />
        <path d="M438 837 c-4 -18 -1 -24 9 -20 15 6 16 13 4 31 -6 10 -10 7 -13 -11z" />
        <path d="M376 834 c-6 -15 -1 -16 28 -5 19 7 19 8 -1 13 -14 4 -24 0 -27 -8z" />
        <path
            d="M2036 825 c-8 -23 -8 -27 4 -20 5 3 32 -6 60 -20 27 -14 50 -23 50
-21 0 2 3 12 7 22 4 11 3 15 -5 10 -6 -4 -20 1 -30 11 -10 10 -24 19 -32 19
-8 1 -22 5 -31 8 -11 5 -19 1 -23 -9z" />
        <path d="M336 796 c3 -9 16 -16 28 -15 14 0 16 2 6 6 -8 3 -21 10 -28 16 -9 7
-11 6 -6 -7z" />
        <path
            d="M423 766 c-48 -31 -51 -34 -38 -52 8 -10 15 -14 15 -7 0 13 66 56 86
56 9 0 10 5 3 19 -5 10 -11 18 -12 18 -1 0 -25 -15 -54 -34z" />
        <path
            d="M2003 767 c-10 -12 -11 -17 -3 -10 8 6 24 13 35 15 17 3 18 5 3 10
-10 4 -23 -1 -35 -15z" />
        <path
            d="M1980 715 c0 -24 42 -65 65 -65 27 0 65 41 64 68 l-2 27 -4 -25 c-11
-59 -41 -64 -89 -16 -33 33 -34 33 -34 11z" />
        <path
            d="M544 692 c5 -8 -84 -82 -98 -82 -4 0 -4 9 -1 20 4 11 2 20 -4 20 -19
0 -12 -39 10 -50 17 -10 27 -6 66 24 25 20 50 33 55 30 6 -4 2 5 -7 20 -15 23
-34 39 -21 18z" />
        <path d="M1935 670 c-3 -5 1 -10 10 -10 9 0 13 5 10 10 -3 6 -8 10 -10 10 -2
0 -7 -4 -10 -10z" />
        <path
            d="M592 631 c2 -8 -15 -28 -38 -46 -37 -28 -40 -34 -28 -50 8 -10 14
-14 14 -7 0 6 20 26 45 45 44 34 44 34 24 53 -13 12 -19 14 -17 5z" />
        <path
            d="M1900 629 c0 -31 28 -44 63 -31 28 11 34 10 45 -5 12 -16 13 -16 10
7 -3 23 -7 25 -53 23 -29 -1 -53 3 -57 10 -5 8 -8 7 -8 -4z" />
        <path
            d="M640 580 c0 -7 -16 -33 -36 -56 -19 -24 -32 -44 -27 -44 4 0 19 17
33 37 l25 37 3 -62 c2 -34 6 -62 10 -62 10 1 85 100 75 100 -5 0 -18 -15 -28
-32 l-20 -33 -3 52 c-2 29 -9 56 -17 63 -12 10 -15 10 -15 0z" />
        <path
            d="M1834 572 l-21 -17 21 -16 c17 -14 18 -19 7 -33 -13 -15 -15 -15 -32
0 -10 9 -16 21 -13 26 4 6 -5 2 -20 -7 -23 -15 -39 -34 -17 -21 10 6 71 -67
71 -86 0 -8 5 -7 17 5 16 15 16 18 -2 37 -14 16 -15 22 -5 35 17 20 23 19 40
-9 14 -22 17 -23 34 -10 11 8 15 14 9 14 -15 0 -74 81 -67 92 8 12 2 9 -22
-10z" />
        <path d="M1962 553 c7 -9 16 -10 29 -2 25 13 24 14 -10 14 -22 0 -27 -3 -19
-12z" />
        <path
            d="M732 473 c-33 -29 -36 -58 -10 -85 13 -13 20 -19 16 -14 -16 21 -7
59 21 87 24 24 26 29 11 29 -10 0 -27 -8 -38 -17z" />
        <path
            d="M1699 478 c-70 -24 -54 -129 19 -127 26 0 26 1 5 11 -11 5 -29 25
-39 43 -15 29 -16 36 -4 50 8 10 23 15 37 12 13 -2 23 -1 23 4 0 14 -14 17
-41 7z" />
        <path
            d="M807 470 c6 -8 13 -24 15 -35 3 -17 5 -18 10 -3 4 10 -1 23 -15 35
-12 10 -17 11 -10 3z" />
        <path
            d="M1758 427 c-12 -9 -14 -17 -7 -30 6 -9 7 -23 3 -30 -4 -6 2 -3 14 7
16 14 19 22 11 32 -6 7 -8 18 -4 24 8 13 4 12 -17 -3z" />
        <path d="M866 414 c-6 -15 -4 -15 11 -3 10 7 20 15 22 16 2 2 -3 3 -11 3 -9 0
-19 -7 -22 -16z" />
        <path
            d="M1588 422 c-15 -3 -14 -9 7 -57 13 -29 21 -56 17 -61 -4 -4 1 -4 11
-1 10 4 24 7 30 7 8 0 8 3 -1 8 -7 5 -20 31 -30 58 -12 36 -22 48 -34 46z" />
        <path
            d="M918 411 c9 -5 -3 -19 -43 -47 -45 -30 -53 -40 -39 -44 12 -5 36 7
71 34 47 37 51 42 36 54 -9 6 -22 12 -27 12 -6 0 -5 -4 2 -9z" />
        <path
            d="M775 400 c4 -6 2 -17 -5 -25 -19 -23 9 -30 30 -7 18 19 18 20 -6 31
-17 7 -23 7 -19 1z" />
        <path
            d="M1512 393 c-10 -4 -10 -8 -1 -19 6 -7 9 -20 6 -28 -3 -8 -2 -16 3
-18 6 -2 11 -15 12 -29 2 -21 6 -25 26 -21 13 3 20 7 14 11 -5 3 -15 30 -22
59 -8 28 -16 52 -19 51 -3 0 -12 -3 -19 -6z" />
        <path
            d="M979 330 c-9 -33 -12 -60 -8 -60 4 0 14 -3 22 -6 12 -4 14 0 10 17
-4 15 0 26 12 35 11 8 14 14 7 14 -7 0 -9 10 -5 30 4 22 2 30 -8 30 -9 0 -20
-23 -30 -60z" />
        <path
            d="M1058 348 c3 -16 0 -28 -7 -28 -6 0 -8 -6 -5 -14 3 -8 1 -23 -5 -34
-9 -17 -7 -20 14 -24 13 -3 22 -1 19 3 -6 11 17 103 29 110 5 4 -4 8 -20 11
-27 4 -29 2 -25 -24z" />
        <path
            d="M1438 375 c-3 -3 1 -22 8 -43 7 -20 13 -47 14 -58 0 -17 5 -20 26
-16 14 2 22 7 16 11 -17 11 -25 51 -10 51 8 0 6 4 -4 11 -10 5 -18 19 -18 29
0 19 -20 27 -32 15z" />
        <path
            d="M1136 341 c-25 -28 -18 -80 14 -99 18 -11 21 -12 13 -2 -18 20 -16
86 3 104 13 13 13 16 1 16 -8 0 -22 -9 -31 -19z" />
        <path
            d="M1198 348 c17 -17 15 -84 -4 -102 -20 -21 -5 -21 24 0 28 19 30 74 4
97 -21 19 -42 23 -24 5z" />
        <path
            d="M1271 332 c5 -13 9 -36 9 -52 0 -19 7 -33 19 -40 29 -15 48 -12 26 3
-13 10 -18 28 -19 65 -1 46 -3 51 -22 50 -19 -2 -21 -6 -13 -26z" />
        <path d="M1358 330 c2 -16 6 -30 8 -30 2 0 4 14 4 30 0 17 -4 30 -8 30 -5 0
-7 -13 -4 -30z" />
        <path
            d="M924 309 c-3 -6 -18 -8 -33 -5 -19 5 -22 4 -11 -4 22 -14 47 -12 54
5 6 17 0 20 -10 4z" />
    </g>
</svg>