<?xml version="1.0" standalone="no"?>
<!DOCTYPE svg PUBLIC "-//W3C//DTD SVG 20010904//EN" "http://www.w3.org/TR/2001/REC-SVG-20010904/DTD/svg10.dtd">
<svg version="1.0" xmlns="http://www.w3.org/2000/svg"
    width="638.000000pt" height="656.000000pt" viewBox="0 0 638.000000 656.000000"
    preserveAspectRatio="xMidYMid meet">

    <g transform="translate(0.000000,656.000000) scale(0.100000,-0.100000)"
        fill="#004D95" stroke="none">
        <path
            d="M3005 6224 c-16 -2 -73 -9 -125 -15 -935 -104 -1796 -661 -2295
-1484 -221 -364 -369 -797 -427 -1245 -17 -139 -17 -581 0 -720 76 -590 297
-1120 659 -1579 98 -124 370 -396 494 -494 489 -386 1061 -613 1680 -668 287
-25 678 2 959 66 777 179 1456 647 1899 1310 264 394 422 813 498 1315 25 165
25 657 0 820 -101 665 -348 1194 -783 1680 -479 536 -1136 882 -1886 996 -98
15 -599 28 -673 18z m661 -118 c556 -84 1041 -291 1466 -628 132 -104 382
-354 486 -486 340 -429 544 -907 629 -1472 22 -145 25 -615 5 -760 -78 -574
-288 -1074 -633 -1512 -102 -128 -353 -380 -480 -481 -424 -335 -906 -544
-1449 -628 -196 -31 -647 -34 -835 -6 -358 54 -625 137 -940 292 -300 148
-548 326 -791 569 -486 486 -769 1067 -866 1776 -17 126 -17 574 0 700 53 387
144 686 308 1010 324 642 872 1148 1547 1429 254 105 598 189 887 215 104 9
569 -3 666 -18z" />
        <path
            d="M2865 5855 c-22 -14 -50 -25 -62 -25 -12 0 -24 -4 -27 -9 -7 -10 17
-21 45 -21 20 0 27 -16 9 -22 -21 -7 -178 -170 -196 -203 -18 -34 -18 -35 2
-62 30 -40 62 -42 69 -6 14 61 26 86 70 143 52 67 80 90 111 90 26 0 54 -29
54 -56 0 -32 -52 -64 -92 -58 -43 7 -68 -14 -68 -59 l0 -31 29 28 c38 37 52
28 39 -24 -8 -30 -7 -44 2 -55 14 -16 11 -18 -59 -39 -21 -6 -40 -15 -42 -21
-6 -14 57 -18 93 -6 17 6 33 9 36 6 10 -10 -31 -44 -62 -51 -49 -10 -52 -17
-15 -30 40 -14 86 -8 112 15 14 11 18 26 15 53 l-4 38 44 0 c44 0 66 20 45 41
-16 16 -93 24 -93 10 0 -6 -7 -11 -16 -11 -14 0 -15 7 -10 38 3 20 6 43 6 50
0 7 20 21 44 31 27 12 45 27 49 41 12 46 -30 103 -85 115 -16 4 -28 9 -28 12
0 9 33 32 68 48 34 15 42 39 16 49 -29 11 -59 5 -99 -19z" />
        <path
            d="M2642 5861 c-30 -18 21 -131 59 -131 18 0 8 54 -16 97 -14 23 -27 43
-28 43 -1 0 -8 -4 -15 -9z" />
        <path
            d="M3687 5836 c-12 -13 -30 -35 -40 -49 -14 -21 -27 -27 -65 -29 -54 -3
-59 -19 -10 -32 18 -5 35 -11 37 -12 2 -2 -5 -26 -15 -54 -22 -63 -56 -84
-131 -84 -33 0 -53 -5 -53 -12 0 -6 -9 -19 -20 -29 -38 -34 -15 -67 50 -71 50
-2 53 -5 84 -69 14 -30 30 -55 36 -55 5 0 10 18 10 41 l0 41 30 -32 c29 -31
32 -32 98 -28 66 5 68 5 104 -30 35 -33 39 -35 63 -22 36 19 31 46 -15 93 -38
37 -40 42 -30 70 5 17 10 45 10 64 0 27 -6 37 -30 51 -37 21 -38 39 -4 52 60
23 134 64 134 74 0 7 -19 20 -42 31 -36 17 -44 26 -49 55 -7 47 -16 60 -41 60
-16 0 -19 -5 -15 -20 7 -27 -30 -141 -51 -157 -9 -7 -26 -13 -39 -13 -13 0
-23 -6 -23 -14 0 -8 -7 -16 -15 -20 -8 -3 -15 -3 -15 0 0 11 54 112 82 152 44
64 15 103 -35 48z m173 -117 c0 -10 -10 -19 -27 -22 -16 -3 -29 -4 -31 -3 -1
2 5 20 14 42 15 36 17 37 30 19 8 -10 14 -26 14 -36z m-138 -140 c-4 -52 3
-59 38 -37 24 15 34 6 26 -24 -13 -51 -21 -54 -72 -30 -25 13 -49 21 -51 18
-3 -3 10 -23 28 -46 35 -44 33 -54 -17 -64 -25 -6 -38 -2 -63 20 -30 25 -32
30 -25 68 9 56 87 154 118 149 19 -4 21 -10 18 -54z" />
        <path
            d="M1980 5635 c0 -8 9 -38 20 -67 22 -57 21 -64 -8 -49 -13 7 -22 7 -30
-1 -17 -17 -15 -45 3 -52 8 -3 15 -15 15 -27 0 -15 -4 -19 -16 -15 -70 27 -84
18 -84 -54 0 -41 -5 -50 -46 -90 -30 -29 -44 -38 -40 -25 69 194 81 260 50
272 -26 10 -42 -22 -37 -70 2 -24 -5 -76 -17 -122 -34 -126 -36 -145 -14 -145
11 0 32 14 47 32 l28 33 -7 -50 c-15 -90 -11 -156 9 -169 24 -15 46 1 75 53
l24 42 25 -26 c14 -14 34 -25 45 -25 21 0 21 1 -25 69 -29 42 -29 46 -25 142
3 55 8 102 12 106 3 4 14 -1 23 -10 15 -15 15 -22 -1 -97 -13 -63 -15 -85 -5
-96 19 -23 43 -16 84 26 21 22 42 40 46 40 4 0 17 -17 30 -37 25 -43 76 -100
100 -113 12 -7 9 16 -17 118 -18 70 -33 136 -34 148 0 11 14 33 30 49 38 36
40 65 5 65 -38 0 -131 57 -154 93 -32 51 -111 88 -111 52z m64 -190 c3 -8 1
-15 -4 -15 -6 0 -10 7 -10 15 0 8 2 15 4 15 2 0 6 -7 10 -15z m-123 -82 c-9
-16 -10 -14 -11 12 0 21 3 26 11 18 8 -8 8 -16 0 -30z m34 -40 c-9 -50 -21
-61 -29 -28 -5 19 -2 33 10 46 24 27 27 24 19 -18z m135 13 c0 -8 -4 -18 -10
-21 -5 -3 -10 3 -10 14 0 12 5 21 10 21 6 0 10 -6 10 -14z m-170 -139 c0 -13
-7 -32 -15 -43 -14 -18 -15 -17 -9 11 12 60 24 76 24 32z" />
        <path
            d="M4575 5455 c-64 -89 -69 -92 -122 -59 -36 22 -44 17 -41 -23 2 -29 8
-39 23 -41 30 -6 41 -20 27 -34 -9 -9 -15 -8 -24 5 -11 15 -21 16 -77 7 -72
-12 -118 -32 -143 -64 -22 -26 -23 -69 -2 -87 13 -10 25 -7 77 19 34 18 72 32
84 32 l22 0 -24 -36 c-25 -36 -31 -68 -19 -98 11 -29 23 -17 60 56 41 81 60
78 42 -7 -10 -45 -9 -50 13 -67 12 -11 34 -18 48 -16 24 3 27 8 32 59 3 31 9
61 13 67 4 6 0 24 -8 40 -12 24 -20 28 -45 24 -38 -5 -38 3 -1 48 29 35 29 35
112 35 93 0 101 7 52 48 -30 26 -32 26 -37 7 -4 -15 -14 -20 -36 -20 -37 0
-38 4 -7 45 41 53 72 146 49 144 -5 0 -35 -38 -68 -84z m-145 -174 c0 -28 -14
-41 -44 -41 l-31 1 30 24 c32 26 45 31 45 16z" />
        <path
            d="M4720 5437 c0 -60 14 -81 51 -75 42 6 46 33 13 80 -16 24 -38 44 -47
46 -14 3 -17 -5 -17 -51z" />
        <path
            d="M3066 5250 c-297 -34 -504 -130 -694 -323 -76 -76 -171 -193 -210
-259 -13 -23 -35 -34 -116 -59 -273 -85 -499 -235 -646 -431 -72 -95 -161
-272 -190 -378 -68 -246 -66 -541 5 -795 37 -131 132 -317 200 -392 l55 -61
-6 -84 c-14 -174 32 -399 115 -574 187 -392 537 -655 971 -730 182 -31 464 -7
642 55 l56 19 74 -23 c194 -62 436 -81 628 -51 116 18 275 68 372 117 174 87
369 252 481 407 161 224 246 498 234 758 l-5 112 40 38 c115 113 223 371 257
618 16 111 13 325 -4 434 -75 463 -394 817 -864 959 l-93 28 -85 114 c-216
290 -434 432 -748 486 -111 19 -362 27 -469 15z m324 -420 c304 -27 568 -120
815 -285 384 -257 636 -632 737 -1095 20 -92 22 -133 22 -335 0 -257 -12 -340
-80 -544 -192 -577 -692 -1020 -1285 -1140 -747 -151 -1488 193 -1862 864 -82
147 -146 329 -184 520 -28 142 -25 474 5 623 82 406 287 748 607 1011 258 213
595 350 934 381 127 11 164 11 291 0z" />
        <path
            d="M3042 4759 c-189 -25 -436 -108 -597 -200 -448 -255 -745 -688 -826
-1204 -16 -103 -16 -367 0 -470 135 -851 859 -1449 1710 -1412 685 29 1279
478 1495 1128 45 135 63 224 78 386 26 287 -31 590 -162 858 -225 462 -658
794 -1168 896 -124 24 -409 34 -530 18z m373 -59 c501 -56 932 -325 1192 -745
325 -524 315 -1200 -25 -1708 -365 -545 -1010 -812 -1649 -682 -546 112 -1011
526 -1186 1057 -60 180 -72 265 -72 503 1 205 3 228 29 340 104 445 384 820
776 1040 283 159 624 230 935 195z" />
        <path
            d="M3045 4575 c74 -45 173 -125 247 -199 l56 -58 -15 52 c-8 28 -12 62
-9 74 8 34 59 54 166 66 52 6 95 12 97 14 12 12 -470 86 -561 86 l-40 0 59
-35z" />
        <path
            d="M3572 4332 c63 -42 121 -101 168 -173 67 -104 75 -141 75 -339 0
-152 -3 -186 -23 -260 -56 -206 -159 -377 -332 -551 -168 -170 -361 -303 -665
-459 -151 -77 -153 -79 -27 -30 271 105 603 326 790 525 204 219 316 532 299
840 -3 55 -8 109 -11 120 -4 11 9 -11 28 -50 52 -104 78 -227 78 -365 1 -330
-148 -637 -476 -979 -61 -64 -65 -69 -26 -40 143 108 327 337 421 524 88 177
112 278 112 475 0 135 -3 167 -26 252 -24 90 -81 221 -129 293 -18 27 -16 26
12 -5 55 -61 158 -223 205 -323 25 -53 57 -140 72 -194 59 -227 17 -493 -132
-841 -64 -150 -41 -127 44 44 100 200 161 425 161 596 0 241 -139 552 -338
756 -28 28 -48 52 -44 52 16 0 196 -148 264 -217 337 -344 416 -748 254 -1309
-19 -66 -33 -120 -31 -122 7 -7 69 171 96 276 39 153 53 280 46 436 -19 452
-283 811 -762 1036 -127 60 -165 72 -103 32z" />
        <path
            d="M2131 3541 c-11 -15 -34 -34 -51 -41 -25 -10 -30 -18 -30 -46 0 -37
14 -43 46 -19 10 8 22 15 27 15 4 0 7 -47 7 -105 l0 -105 40 0 40 0 0 165 0
165 -29 0 c-21 0 -36 -8 -50 -29z" />
        <path
            d="M2369 3542 c-64 -57 -42 -173 36 -188 25 -4 42 -1 61 11 l26 17 -7
-34 c-12 -54 -47 -79 -61 -43 -7 16 -51 20 -73 6 -10 -7 -11 -13 -2 -29 26
-50 120 -59 169 -17 67 56 68 211 2 277 -40 40 -106 40 -151 0z m86 -28 c37
-15 38 -93 2 -107 -40 -15 -68 60 -37 97 14 18 13 18 35 10z" />
        <path
            d="M2666 3558 c-7 -22 -27 -161 -24 -163 11 -9 68 -12 73 -5 9 14 49 12
63 -2 15 -15 16 -53 2 -79 -14 -25 -46 -24 -62 1 -8 13 -24 20 -44 20 -41 0
-46 -7 -28 -41 19 -38 43 -49 103 -49 41 0 56 5 81 28 81 73 26 207 -77 187
-32 -6 -34 -4 -31 17 3 21 9 23 71 26 l68 3 -3 32 -3 32 -93 3 c-69 2 -93 -1
-96 -10z" />
        <path
            d="M2970 3542 c-35 -36 -38 -69 -9 -106 17 -22 18 -27 5 -32 -20 -8 -36
-59 -29 -95 9 -46 46 -69 113 -69 69 0 106 24 116 74 6 35 -17 96 -37 96 -6 0
-1 12 10 26 27 35 26 66 -2 100 -19 22 -34 28 -80 32 -52 4 -58 2 -87 -26z
m98 -31 c8 -5 12 -21 10 -37 -2 -23 -8 -29 -28 -29 -20 0 -26 6 -28 29 -3 25
10 46 28 46 3 0 11 -4 18 -9z m14 -146 c15 -33 -3 -75 -32 -75 -29 0 -47 42
-32 75 7 15 20 25 32 25 12 0 25 -10 32 -25z" />
        <path
            d="M2825 2495 c-33 -8 -104 -30 -157 -49 -136 -50 -271 -76 -427 -83
l-135 -6 -52 -53 -53 -52 49 -4 c98 -6 359 10 505 33 110 17 194 23 315 24
153 0 168 -2 212 -23 58 -29 81 -63 81 -119 l0 -43 96 0 96 0 1 43 c1 56 25
91 82 119 43 21 60 23 212 23 121 -1 205 -7 315 -24 146 -23 407 -39 504 -33
l48 4 -52 52 -51 53 -130 6 c-166 7 -264 26 -449 89 -254 85 -399 79 -497 -22
-27 -28 -52 -66 -59 -89 -7 -23 -15 -41 -19 -41 -4 0 -13 19 -21 43 -20 62
-94 132 -160 151 -63 19 -172 19 -254 1z" />
        <path
            d="M1225 5050 c-73 -30 -145 -177 -145 -294 0 -62 32 -112 100 -156 26
-17 78 -62 114 -101 50 -53 71 -70 88 -67 15 2 22 9 20 19 -1 11 7 18 26 22
22 5 36 19 60 65 27 50 38 62 76 76 50 19 76 60 76 119 0 38 -9 47 -188 202
-93 80 -163 126 -192 124 -8 0 -24 -4 -35 -9z m83 -74 c71 -40 240 -180 254
-211 12 -27 -13 -95 -35 -95 -8 0 -17 -7 -21 -15 -3 -8 -20 -24 -38 -35 -22
-13 -27 -20 -15 -20 9 0 17 -6 17 -13 0 -19 -60 -87 -77 -87 -9 0 -51 36 -94
79 -85 86 -93 106 -63 162 12 25 18 28 29 19 11 -9 13 -27 8 -71 l-6 -59 31 0
c17 0 34 5 38 12 4 7 13 -2 23 -23 24 -50 50 -45 80 15 16 32 26 72 29 121 4
64 2 74 -14 83 -15 8 -32 3 -79 -22 l-59 -33 -21 31 c-25 38 -45 43 -74 19
-16 -13 -25 -34 -30 -73 l-7 -55 -22 35 c-27 42 -30 123 -6 178 17 41 61 92
80 92 7 0 39 -15 72 -34z m102 -196 c0 -11 -2 -20 -3 -20 -2 0 -12 9 -22 20
-18 19 -17 20 3 20 15 0 22 -6 22 -20z m-100 -111 c0 -5 -4 -9 -10 -9 -5 0
-10 7 -10 16 0 8 5 12 10 9 6 -3 10 -10 10 -16z" />
        <path
            d="M5254 4934 c-18 -37 -96 -104 -121 -104 -16 0 -70 52 -89 85 -16 27
-29 12 -29 -35 0 -29 8 -47 29 -68 31 -33 28 -37 -27 -47 -28 -5 -49 -2 -78
10 -50 23 -68 11 -47 -32 12 -25 19 -28 71 -31 41 -2 70 3 103 18 26 11 54 20
63 20 9 0 50 -18 91 -40 118 -63 136 -54 85 41 -23 43 -35 57 -35 42 0 -31
-16 -37 -50 -17 l-29 18 59 53 c63 58 79 86 60 108 -20 24 -38 17 -56 -21z" />
        <path
            d="M5050 4646 c0 -17 -9 -48 -20 -69 -11 -20 -20 -44 -20 -52 0 -20 35
-37 68 -33 22 2 29 10 36 40 6 23 6 56 0 85 -8 39 -13 48 -36 54 -26 7 -28 5
-28 -25z" />
        <path
            d="M842 4287 c-11 -12 -26 -44 -33 -72 -15 -65 -21 -70 -58 -50 -29 14
-34 14 -65 0 -18 -9 -44 -27 -56 -40 l-22 -24 33 -20 c19 -12 53 -29 75 -38
41 -17 42 -18 48 -82 6 -57 5 -66 -15 -87 -29 -31 -14 -49 50 -63 56 -12 114
0 147 30 11 10 25 19 31 19 7 0 19 7 27 16 13 13 27 14 88 5 40 -5 74 -8 77
-5 5 5 -68 75 -120 115 -32 25 -33 27 -37 117 -5 94 -11 106 -44 80 -8 -7 -20
-22 -26 -33 -10 -18 -11 -18 -17 10 -16 72 -38 134 -50 139 -7 2 -22 -5 -33
-17z m52 -145 c8 -34 12 -62 10 -62 -14 0 -64 32 -64 41 0 28 24 99 31 92 4
-4 15 -36 23 -71z m-5 -182 c62 -31 67 -74 8 -63 -37 6 -57 27 -57 60 0 28 1
28 49 3z" />
        <path d="M5750 4253 c-53 -19 -80 -83 -35 -83 23 0 95 62 95 82 0 9 -36 10
-60 1z" />
        <path
            d="M5457 4193 c-15 -18 -21 -36 -18 -60 1 -9 19 -13 56 -13 44 0 71 -8
128 -36 77 -39 117 -69 117 -90 0 -33 -24 -64 -50 -64 -35 0 -76 43 -72 76 5
36 -15 54 -59 54 -47 0 -49 -9 -9 -32 42 -24 37 -38 -13 -38 -24 0 -48 -5 -55
-12 -15 -15 -34 1 -57 52 -10 22 -22 40 -27 40 -15 0 -8 -55 12 -95 11 -21 18
-40 16 -42 -10 -11 -40 15 -64 56 l-27 46 -3 -34 c-6 -62 6 -100 38 -116 27
-14 33 -14 60 0 32 17 32 16 42 -50 5 -31 44 -32 52 -2 7 30 -3 89 -15 82 -9
-6 -23 14 -15 22 3 4 28 7 55 7 45 1 51 -2 67 -29 21 -36 32 -45 61 -45 35 0
73 40 86 93 l12 48 44 -47 c41 -43 45 -45 58 -28 19 27 17 37 -25 90 -21 27
-44 63 -52 79 l-15 30 -3 -42 c-3 -41 -14 -54 -27 -33 -4 6 -39 32 -78 59
-135 91 -188 109 -220 74z m368 -173 c3 -6 -1 -7 -9 -4 -18 7 -21 14 -7 14 6
0 13 -4 16 -10z" />
        <path
            d="M760 3055 c0 -17 -19 -22 -115 -29 -55 -4 -74 -10 -87 -27 -25 -30
-24 -99 3 -133 20 -25 24 -26 119 -26 54 0 100 -3 103 -7 2 -5 2 -2 0 5 -1 8
-3 21 -3 30 0 13 -2 14 -8 4 -6 -8 -41 -15 -94 -19 -84 -6 -86 -5 -102 20 -11
16 -16 40 -14 64 4 50 31 63 131 63 l77 0 0 35 c0 19 -2 35 -5 35 -3 0 -5 -7
-5 -15z" />
        <path
            d="M5881 3042 c-1 -10 -14 -12 -55 -7 -76 10 -98 -4 -94 -57 2 -24 9
-43 16 -44 7 -1 8 0 2 3 -14 7 -13 46 2 61 21 21 36 13 43 -25 9 -48 21 -63
51 -63 30 0 49 32 34 60 -14 26 -18 25 -13 -4 8 -42 -49 -45 -61 -3 -11 42 -7
47 34 45 46 -2 54 3 47 29 -3 10 -5 12 -6 5z" />
        <path
            d="M5740 2853 c-8 -3 -18 -11 -22 -17 -11 -16 -10 -64 1 -70 5 -4 7 2 5
11 -3 10 1 27 9 37 13 17 20 18 76 9 56 -9 61 -8 61 9 0 15 -8 18 -44 18 -24
0 -50 2 -58 4 -7 3 -20 2 -28 -1z" />
        <path
            d="M701 2788 c-1 -18 -13 -23 -80 -33 -31 -5 -46 -3 -53 6 -7 11 -8 9
-4 -4 3 -10 7 -31 7 -45 1 -16 3 -20 6 -10 5 18 15 22 75 32 32 6 39 3 53 -18
27 -41 7 -64 -65 -72 -58 -6 -60 -7 -53 -33 7 -32 13 -40 13 -18 0 9 12 18 30
21 17 3 44 9 61 12 45 9 59 46 31 83 -14 19 -17 31 -10 33 8 3 8 12 0 34 -6
16 -11 21 -11 12z" />
        <path
            d="M5850 2746 c0 -14 -6 -16 -27 -12 -16 3 -49 8 -75 12 -47 6 -48 6
-48 -21 0 -23 2 -25 14 -15 11 8 31 9 76 2 59 -9 61 -8 66 15 4 13 4 27 0 30
-3 4 -6 -2 -6 -11z" />
        <path
            d="M5603 2638 c2 -7 10 -13 17 -13 7 0 15 6 18 13 2 7 -5 12 -18 12 -13
0 -20 -5 -17 -12z" />
        <path
            d="M5680 2615 c0 -23 2 -25 15 -15 21 17 125 -5 125 -27 0 -27 7 -11 14
32 4 26 3 35 -3 26 -9 -14 -29 -13 -118 5 -31 6 -33 5 -33 -21z" />
        <path
            d="M740 2569 c0 -24 -118 -49 -131 -28 -7 9 -7 4 -3 -16 4 -16 7 -31 8
-32 1 -1 22 4 46 12 25 7 59 17 77 22 30 8 31 9 18 33 -10 17 -14 20 -15 9z" />
        <path
            d="M810 2560 c0 -13 5 -20 13 -17 6 2 12 10 12 17 0 7 -6 15 -12 18 -8
2 -13 -5 -13 -18z" />
        <path
            d="M5668 2528 c-21 -17 -30 -49 -18 -68 8 -12 10 -11 10 6 0 40 24 49
88 31 31 -8 57 -15 58 -14 1 1 5 13 9 27 6 19 4 22 -5 14 -9 -9 -25 -8 -63 2
-63 17 -60 17 -79 2z" />
        <path
            d="M750 2440 c-14 -14 -44 -39 -65 -56 -22 -18 -38 -34 -35 -37 3 -3 42
-12 88 -20 65 -11 82 -11 82 -2 0 8 -12 13 -27 12 -58 -2 -103 3 -103 12 0 9
74 67 94 74 7 2 7 10 1 23 -10 18 -11 18 -35 -6z" />
        <path
            d="M5542 2434 c-2 -21 1 -24 11 -15 10 8 37 5 106 -13 50 -13 98 -30
106 -36 12 -10 15 -9 15 3 0 8 3 22 6 30 4 11 -1 13 -20 10 -13 -3 -42 1 -63
8 -21 7 -40 12 -43 12 -3 0 -25 6 -50 13 -61 19 -65 18 -68 -12z" />
        <path
            d="M5541 2377 c-19 -24 -41 -86 -41 -117 0 -74 60 -127 132 -117 22 3
49 14 60 24 28 24 58 91 57 128 0 25 -3 22 -13 -18 -23 -84 -79 -121 -150 -97
-71 23 -95 90 -54 150 14 19 32 34 41 34 22 -2 21 3 -2 15 -14 8 -22 7 -30 -2z" />
        <path
            d="M736 2239 c-15 -12 -26 -30 -26 -45 0 -30 26 -84 41 -84 5 0 3 10 -5
22 -22 32 -20 64 6 82 21 15 23 14 35 -7 13 -21 13 -21 7 6 -5 24 -3 27 19 27
46 0 63 -50 24 -74 -14 -8 -20 -8 -27 4 -5 8 -10 10 -10 4 0 -5 6 -18 13 -28
21 -29 57 -5 57 37 0 69 -77 101 -134 56z" />
        <path
            d="M890 2104 c0 -22 -101 -65 -119 -50 -12 9 -12 7 -1 -14 7 -14 14 -26
15 -27 1 -2 19 6 40 17 51 26 85 26 92 0 6 -23 33 -27 33 -5 0 9 -12 20 -27
26 -20 7 -24 12 -14 18 10 7 11 13 2 30 -14 25 -21 27 -21 5z" />
        <path
            d="M5380 2010 c0 -21 10 -41 34 -65 19 -18 36 -31 39 -28 10 9 107 -52
102 -64 -10 -29 6 -10 25 27 20 40 20 40 1 28 -17 -10 -28 -9 -67 10 -42 21
-45 25 -40 50 6 26 5 26 -9 8 -12 -16 -18 -18 -40 -8 -31 14 -41 37 -25 57 10
12 9 15 -4 15 -11 0 -16 -9 -16 -30z" />
        <path
            d="M913 1955 c-3 -9 -3 -33 1 -54 8 -50 -10 -68 -43 -44 -17 12 -22 23
-19 45 3 18 1 27 -6 25 -34 -12 19 -97 60 -97 31 0 43 25 33 68 -10 45 4 67
33 51 15 -8 19 -18 16 -40 -3 -18 -1 -28 6 -26 15 6 9 47 -11 69 -20 22 -61
24 -70 3z" />
        <path d="M1095 1859 c-10 -15 1 -23 20 -15 9 3 13 10 10 16 -8 13 -22 13 -30
-1z" />
        <path
            d="M5400 1853 c-27 -10 -50 -47 -50 -81 0 -42 38 -82 77 -82 31 0 73 24
73 43 0 8 -3 8 -12 -1 -33 -33 -128 5 -128 52 0 68 111 55 140 -18 8 -19 9
-19 9 6 2 49 -64 98 -109 81z" />
        <path
            d="M1025 1838 c5 -13 -5 -25 -41 -48 -27 -17 -54 -28 -61 -26 -18 7 -16
2 8 -36 12 -18 18 -25 15 -15 -4 13 8 26 52 54 31 20 59 38 61 40 3 2 -5 14
-18 26 -16 16 -20 18 -16 5z" />
        <path
            d="M1117 1749 c-10 -6 -24 -8 -32 -5 -9 3 -12 0 -9 -9 3 -8 -13 -26 -40
-45 -49 -33 -55 -49 -30 -74 21 -22 25 -20 19 7 -5 19 1 29 34 52 40 27 42 27
61 10 22 -20 28 -7 8 14 -11 10 -9 16 10 28 39 27 20 46 -21 22z" />
        <path
            d="M1122 1574 c-23 -46 -39 -84 -36 -84 3 0 41 9 85 20 44 12 85 18 90
14 6 -4 3 5 -6 20 -19 28 -30 35 -22 12 4 -11 -9 -19 -48 -30 -29 -9 -56 -16
-60 -16 -3 0 6 23 22 50 20 36 33 50 45 46 14 -3 14 0 -4 25 -12 16 -22 29
-22 28 -1 0 -20 -38 -44 -85z" />
        <path
            d="M5197 1582 c-21 -23 -22 -33 -3 -26 9 3 23 -12 40 -42 14 -26 24 -49
22 -52 -8 -7 -106 29 -106 39 0 15 -18 1 -31 -23 -6 -11 -7 -18 -1 -14 5 3 45
-5 88 -18 70 -20 81 -27 97 -57 16 -32 16 -35 0 -47 -12 -9 -14 -15 -6 -23 8
-8 14 -5 23 11 10 19 4 37 -49 139 -33 65 -58 121 -54 125 3 3 4 6 1 6 -3 0
-12 -8 -21 -18z" />
        <path d="M970 1502 c0 -15 24 -32 43 -32 17 0 17 2 -6 20 -27 21 -37 25 -37
12z" />
        <path d="M1048 1483 c7 -3 16 -2 19 1 4 3 -2 6 -13 5 -11 0 -14 -3 -6 -6z" />
        <path
            d="M5080 1415 c-7 -8 -18 -15 -26 -15 -19 0 -44 -40 -44 -72 0 -51 61
-70 88 -27 11 18 11 18 -7 7 -42 -26 -93 26 -59 60 20 20 45 14 67 -15 18 -25
20 -26 21 -7 0 11 -6 29 -14 40 -10 13 -11 23 -4 31 7 9 7 13 0 13 -5 0 -15
-7 -22 -15z" />
        <path
            d="M1330 1325 c-33 -35 -31 -81 4 -112 15 -12 36 -23 47 -23 28 0 75 26
83 45 32 85 -73 155 -134 90z m104 -1 c22 -21 20 -46 -5 -78 -29 -37 -55 -49
-79 -36 -31 16 -26 65 9 101 33 33 52 36 75 13z" />
        <path
            d="M5143 1295 c-22 -25 -36 -33 -49 -28 -14 5 -16 3 -11 -11 4 -10 7
-19 7 -22 0 -2 8 0 17 3 13 5 15 2 10 -11 -10 -24 10 -56 34 -56 31 0 57 18
74 50 20 39 19 73 -3 93 -27 25 -45 21 -79 -18z m77 -15 c22 -41 -20 -97 -65
-86 -32 8 -34 42 -4 80 24 31 54 34 69 6z" />
        <path
            d="M4889 1251 c-36 -36 -37 -70 -3 -110 33 -39 74 -41 109 -6 42 41 31
105 -22 133 -34 18 -52 14 -84 -17z m80 -16 c36 -31 46 -57 31 -85 -15 -28
-52 -25 -89 6 -36 30 -42 76 -13 93 26 16 38 13 71 -14z" />
        <path
            d="M1560 1250 c-11 -11 -24 -20 -30 -20 -5 0 -9 -3 -8 -7 2 -5 -13 -27
-32 -51 -25 -31 -40 -42 -54 -38 -10 3 -15 2 -10 -2 5 -4 22 -18 39 -32 16
-14 24 -18 18 -10 -12 16 -11 20 40 80 21 25 31 30 40 21 19 -19 31 -12 14 7
-16 17 -15 20 8 42 22 21 29 23 46 11 22 -13 35 -9 24 8 -11 19 -73 13 -95 -9z" />
        <path
            d="M4704 1208 c-17 -19 -17 -21 -2 -15 14 5 34 -13 83 -75 36 -45 64
-87 61 -95 -3 -7 7 -4 24 9 33 24 37 30 17 22 -9 -3 -40 30 -83 85 -38 49 -72
90 -75 90 -3 1 -14 -9 -25 -21z" />
        <path
            d="M1750 1100 c-30 -30 -25 -56 20 -102 22 -23 40 -46 40 -50 0 -13 -39
-48 -52 -48 -7 0 -28 9 -47 21 -28 17 -32 25 -29 49 4 28 4 29 -13 14 -14 -12
-16 -21 -9 -34 14 -26 73 -60 104 -60 27 0 76 39 76 61 0 6 -18 31 -40 55 -46
50 -49 67 -16 89 22 15 27 15 54 1 33 -17 44 -37 35 -63 -5 -17 -4 -17 13 0
19 18 18 19 -18 53 -44 40 -87 45 -118 14z" />
        <path
            d="M4664 1066 c-34 -15 -59 -63 -50 -93 29 -92 157 -78 156 18 -1 38
-14 60 -47 77 -26 14 -21 14 -59 -2z m62 -40 c39 -39 43 -68 13 -89 -27 -19
-54 -11 -84 25 -31 37 -32 62 -3 82 31 22 35 21 74 -18z" />
        <path
            d="M4492 954 c-12 -8 -22 -20 -22 -27 0 -8 3 -8 12 1 27 27 56 14 85
-38 29 -51 37 -57 63 -40 13 8 13 10 -1 10 -9 0 -28 22 -42 49 -35 63 -56 73
-95 45z" />
        <path
            d="M1861 924 c-12 -15 -21 -41 -21 -60 0 -28 6 -38 33 -54 17 -11 39
-20 47 -20 8 0 1 9 -16 19 -17 10 -34 28 -37 40 -8 30 24 85 51 89 29 4 65
-26 57 -47 -5 -12 -2 -12 12 2 17 18 17 19 -6 38 -35 29 -94 26 -120 -7z" />
        <path d="M2084 939 c-10 -17 13 -36 27 -22 12 12 4 33 -11 33 -5 0 -12 -5 -16
-11z" />
        <path
            d="M4425 910 c-16 -17 -16 -20 -2 -20 18 0 70 -88 63 -107 -7 -16 -1
-16 23 -1 18 11 17 13 -10 57 -16 25 -29 49 -29 54 0 4 -6 15 -14 22 -12 12
-16 11 -31 -5z" />
        <path
            d="M4205 906 c-16 -11 -16 -14 -2 -19 19 -7 100 -176 93 -194 -7 -17 3
-16 34 2 14 8 19 14 13 15 -14 0 -53 70 -53 95 0 8 -4 15 -9 15 -5 0 -17 20
-27 45 -20 54 -25 58 -49 41z" />
        <path
            d="M2040 874 c10 -11 6 -25 -18 -66 -17 -29 -35 -52 -41 -50 -21 4 -11
-8 19 -23 32 -17 54 -20 30 -5 -13 8 -10 19 18 70 35 64 35 74 2 83 -17 4 -19
3 -10 -9z" />
        <path
            d="M4302 858 c-19 -19 -14 -30 9 -18 31 17 48 5 74 -55 24 -53 25 -54
51 -43 23 11 24 13 8 18 -10 4 -30 29 -44 56 -21 40 -30 50 -55 52 -17 2 -36
-3 -43 -10z" />
        <path
            d="M2110 788 c-32 -53 -25 -90 21 -113 15 -8 38 -15 51 -14 18 0 15 3
-12 12 -37 13 -58 51 -47 81 6 15 10 15 46 -4 63 -32 78 -25 71 30 -2 17 -28
40 -44 40 -6 0 -3 -5 7 -11 16 -10 24 -49 11 -62 -9 -9 -74 25 -74 39 0 7 8
18 18 23 15 9 15 10 -6 11 -15 0 -29 -11 -42 -32z" />
        <path
            d="M4116 760 c-34 -41 -33 -74 4 -112 25 -24 36 -29 58 -23 15 3 36 15
47 26 20 20 20 20 -12 4 -36 -18 -61 -10 -87 27 -20 29 -20 52 0 72 19 19 60
21 68 4 3 -7 5 -4 3 7 -4 34 -50 31 -81 -5z" />
        <path
            d="M2288 758 c10 -13 9 -26 -8 -72 -12 -31 -27 -56 -33 -57 -7 0 -1 -5
12 -10 13 -5 25 -8 26 -7 1 2 7 23 14 48 7 25 18 51 23 58 14 17 53 15 68 -3
12 -14 6 -43 -25 -116 -4 -11 0 -18 12 -21 14 -4 19 1 21 16 1 12 8 41 16 64
9 23 13 49 9 58 -7 20 -48 35 -69 27 -9 -3 -19 -1 -23 4 -3 6 -17 14 -31 18
-22 7 -23 6 -12 -7z" />
        <path
            d="M3763 747 c-78 -19 -83 -23 -82 -46 1 -18 3 -21 6 -8 4 16 40 37 63
37 12 0 53 -177 47 -201 -5 -18 -2 -20 16 -15 12 3 28 6 35 6 11 0 10 3 -1 14
-8 8 -25 56 -37 107 -19 76 -21 93 -9 100 24 15 57 10 62 -8 3 -11 5 -7 6 10
1 32 3 32 -106 4z" />
        <path
            d="M3980 733 c-56 -21 -69 -95 -24 -140 20 -20 31 -24 57 -19 18 4 41
16 52 28 l20 21 -25 -17 c-32 -21 -63 -20 -83 2 -23 25 -22 30 16 47 22 10 24
13 7 9 -14 -4 -31 -9 -38 -12 -10 -3 -13 4 -10 29 3 30 6 34 33 34 22 0 33 -6
40 -23 10 -22 26 -25 33 -4 4 13 -33 52 -50 51 -7 0 -20 -3 -28 -6z" />
        <path
            d="M3453 703 c-10 -3 -9 -8 2 -20 8 -8 15 -25 15 -39 0 -20 -5 -24 -28
-24 -26 0 -69 -22 -84 -44 -14 -20 -8 -74 10 -96 22 -27 65 -29 92 -5 17 15
20 16 20 3 0 -11 7 -14 26 -10 17 3 22 7 13 12 -7 5 -16 51 -22 119 -10 108
-13 117 -44 104z m0 -106 c10 -6 20 -28 23 -48 5 -29 2 -41 -15 -58 -26 -26
-33 -26 -60 -3 -32 26 -38 75 -12 101 24 24 40 26 64 8z" />
        <path
            d="M2503 680 c-27 -11 -43 -40 -43 -79 0 -37 40 -71 84 -70 l31 1 -28 8
c-44 13 -57 29 -57 70 0 47 28 75 65 66 14 -4 29 -16 34 -28 l8 -22 5 22 c10
36 -45 54 -99 32z" />
        <path
            d="M2651 633 c-12 -10 -24 -35 -27 -55 -5 -30 -2 -41 19 -62 26 -26 89
-37 101 -18 3 5 -8 6 -24 4 -19 -3 -35 3 -49 17 -28 28 -28 61 2 62 16 1 18 2
5 6 -39 10 -13 56 28 51 23 -2 30 -9 32 -30 3 -21 -2 -27 -20 -31 -15 -3 -10
-5 15 -6 31 -1 37 2 37 19 0 51 -76 78 -119 43z" />
        <path
            d="M2983 603 c-7 -2 -13 -9 -13 -15 0 -6 6 -6 15 2 20 17 61 5 68 -20 4
-15 0 -20 -16 -21 -17 -1 -18 -2 -4 -6 20 -5 23 -43 5 -62 -10 -11 -10 -13 0
-7 7 4 12 1 12 -8 0 -10 8 -16 23 -15 12 0 17 3 11 5 -6 3 -9 27 -6 64 3 39 0
65 -8 75 -12 14 -61 19 -87 8z" />
        <path
            d="M3204 594 c-19 -10 -30 -11 -34 -4 -4 7 -14 7 -31 1 -17 -7 -19 -10
-6 -10 14 -1 17 -11 17 -65 0 -42 -4 -66 -12 -69 -7 -3 7 -5 32 -5 25 0 37 2
28 5 -28 7 -26 118 2 133 14 8 26 8 40 0 17 -9 20 -21 20 -70 0 -51 3 -60 18
-60 15 0 17 7 12 63 -3 34 -9 67 -13 73 -12 19 -44 23 -73 8z" />
        <path
            d="M2962 528 c-7 -7 -12 -22 -12 -35 0 -29 44 -53 62 -35 9 9 7 12 -9
12 -29 0 -36 27 -13 50 19 19 19 20 2 20 -10 0 -23 -5 -30 -12z" />
    </g>
</svg>