<svg t="1747232051436" class="icon" viewBox="0 0 1297 1024" version="1.1"
    xmlns="http://www.w3.org/2000/svg" p-id="10383" width="256" height="256">
    <path
        d="M1084.210996 992.374564C998.994046 28.004216 931.858361 0 931.858361 0 868.711928 15.392492 800.093446 181.468321 800.093446 181.468321c-49.331243-23.274819-138.071613-18.174096-138.071614-18.174096s-88.741207-5.100723-138.072449 18.174096c0 0-68.618482-166.075829-131.766588-181.468321 0 0-64.723735 27.076735-147.808065 941.838182l-14.373017-0.278495h-27.911384c-2.318282-0.091995-6.676352-0.556154-10.199773-1.205139-3.709085-0.741817-7.511001-1.390802-11.127254-2.503945-30.044003-7.696664-54.431129-27.261562-66.022541-55.544273-1.946956-3.244926-2.688773-7.232506-4.079575-10.848759-1.298807-3.709085-2.875272-7.232506-3.524258-11.034422l-2.874436-11.220086c-0.556154-3.709085-0.741817-7.418169-1.205139-11.12809-1.205975-14.928334 0.184827-30.22883 5.656041-43.581534 5.378382-13.352704 14.280185-25.685933 26.613413-35.792875 6.119362-5.007891 12.703719-9.829283 19.843394-13.909694 3.616253-1.946956 7.232506-3.986743 11.034422-5.656041 3.616253-1.762129 7.975159-3.431426 10.663931-4.450901l2.503946-1.020312c8.71614-3.43059 14.094521-12.703719 12.239561-22.254507a19.769797 19.769797 0 0 0-23.274819-15.578156c-6.489853 1.297971-11.312081 2.410278-16.690463 4.079575-5.28555 1.576465-10.292605 3.523421-15.300496 5.564045-10.01411 4.173243-19.843393 9.272293-29.116523 15.578155-18.545423 12.425224-35.329553 29.85834-46.08548 51.278199-21.050205 43.304712-18.545423 93.469767 0.741817 134.270534 9.458793 20.863705 24.57279 39.965282 42.562059 54.988119 17.989269 15.206829 39.223465 25.685097 61.200313 31.712464 5.471213 1.669297 11.127254 2.688773 16.78413 3.709084 5.934535 0.92748 12.054734 2.781604 19.194408 3.244927 9.458793 0.649822 37.555004 3.709921 37.555004 3.709921 17.896438 1.205139 34.030746 5.099887 51.556694 6.676352 52.8555 7.510164 159.02815 14.280185 371.375123 13.259873 458.539865 2.225451 422.098004-31.527637 422.098004-31.527637z m-610.798831-522.428951c-26.149255 0-47.384287-21.235032-47.384287-47.384287s21.234195-47.384287 47.384287-47.384287c26.149255 0 47.383451 21.234195 47.38345 47.384287s-21.234195 47.384287-47.38345 47.384287z m254.352877 110.994878h-45.993484a4.35807 4.35807 0 0 1-3.244927-1.390802l-16.505635-16.505635-16.505635 16.505635a4.729396 4.729396 0 0 1-3.245763 1.390802h-45.993485v-9.272293h44.046529l17.525111-17.525947c0.834649-1.576465 2.503946-2.225451 4.265238-2.225451 1.483634 0 2.967268 0.556154 3.894748 1.85496l17.897274 17.896438h44.044856v9.272293z m122.863949-110.994878c-26.149255 0-47.383451-21.235032-47.383451-47.384287s21.234195-47.384287 47.383451-47.384287c26.149255 0 47.384287 21.234195 47.384287 47.384287s-21.234195 47.384287-47.384287 47.384287z"
        fill="#193762" p-id="10384"></path>
    <path
        d="M426.027878 422.561326a47.384287 47.384287 0 1 0 94.767737 0 47.384287 47.384287 0 1 0-94.767737 0zM803.24554 422.561326a47.384287 47.384287 0 1 0 94.767738 0 47.384287 47.384287 0 1 0-94.767738 0zM657.754922 554.234246l-17.525111 17.526784h-44.045693v9.272293h45.992648c1.205139 0 2.411114-0.463322 3.244927-1.390802l16.506471-16.505636V552.009632c-1.669297-0.092832-3.431426 0.648985-4.173242 2.224614z"
        fill="#FFFFFF" p-id="10385"></path>
    <path
        d="M678.525795 579.642521c0.834649 0.834649 2.040624 1.390802 3.245763 1.390802h45.993484v-9.272293H683.717677l-17.896437-17.897274c-0.833812-1.297971-2.410278-1.854124-3.893912-1.854124v11.127253l16.597631 16.505636z"
        fill="#FFFFFF" p-id="10386"></path>
</svg>