<svg t="1747232179263" class="icon" viewBox="0 0 1024 1024" version="1.1"
    xmlns="http://www.w3.org/2000/svg" p-id="12428" width="256" height="256">
    <path
        d="M1002.666667 797.354667H21.333333a21.376 21.376 0 0 1-21.333333-21.333334V21.333333C0 9.557333 9.6 0 21.333333 0h981.333334c11.733333 0 21.333333 9.6 21.333333 21.333333v754.773334c0 11.690667-9.6 21.333333-21.333333 21.333333"
        fill="#CCCCCC" p-id="12429"></path>
    <path d="M32.981333 746.496h958.08V50.816H32.981333z" fill="#353535" p-id="12430"></path>
    <path
        d="M106.325333 176.64l93.184 46.976-93.184 46.976v50.346667l142.677334-71.893334V198.186667L106.325333 126.293333v50.346667zM341.333333 288.170667H281.173333a8.405333 8.405333 0 0 0-8.405333 8.405333v25.173333c0 4.650667 3.797333 8.405333 8.405333 8.405334H341.333333a8.405333 8.405333 0 0 0 8.405334-8.405334v-25.173333A8.405333 8.405333 0 0 0 341.333333 288.170667z"
        fill="#FFFFFF" p-id="12431"></path>
    <path d="M572.16 740.864V648.533333l338.517333-275.584v97.92z" fill="#045BE0" p-id="12432"></path>
    <path d="M668.672 1021.184V928.853333l338.517333-275.584v97.92z" fill="#72C400" p-id="12433"></path>
    <path
        d="M485.12 563.754667l101.845333-94.549334-109.397333-117.333333-224.170667 185.472 1.28 1.109333-1.28 1.109334 317.354667 299.776 106.325333-93.269334z"
        fill="#FF5D5B" p-id="12434"></path>
    <path
        d="M910.677333 373.504l-104.917333-99.413333-338.517333 275.626666 104.96 99.370667 118.101333-96.170667 103.765333 96.170667 105.813334-95.232-98.56-91.306667z"
        fill="#61A0FF" p-id="12435"></path>
    <path
        d="M572.16 649.088l118.144-96.170667 103.808 87.765334 105.728-86.826667 107.392 99.413333-335.786667 275.584-100.693333-89.514666 106.325333-93.269334z"
        fill="#C0FF01" p-id="12436"></path>
    <path d="M253.354667 643.498667v-103.978667l418.133333 389.376-2.816 92.245333z" fill="#C30000"
        p-id="12437"></path>
    <path d="M572.16 836.394667v97.024l96.512 87.765333 2.816-92.330667z" fill="#508705"
        p-id="12438"></path>
</svg>