<svg t="1747232129790" class="icon" viewBox="0 0 1024 1024" version="1.1"
    xmlns="http://www.w3.org/2000/svg" p-id="11407" width="256" height="256">
    <path
        d="M0 0m27.797704 0l968.404592 0q27.797704 0 27.797704 27.797704l0 968.404592q0 27.797704-27.797704 27.797704l-968.404592 0q-27.797704 0-27.797704-27.797704l0-968.404592q0-27.797704 27.797704-27.797704Z"
        fill="#ECE0C5" p-id="11408"></path>
    <path d="M72.602125 75.431561h877.952939v877.952939H72.602125z" fill="#656565" p-id="11409"></path>
    <path
        d="M174.883229 703.205162m9.737474 0l126.557063 0q9.737474 0 9.737474 9.737474l0 126.557063q0 9.737474-9.737474 9.737474l-126.557063 0q-9.737474 0-9.737474-9.737474l0-126.557063q0-9.737474 9.737474-9.737474Z"
        fill="#ECE0C5" p-id="11410"></path>
    <path
        d="M439.601052 703.205162m9.737474 0l126.557063 0q9.737474 0 9.737474 9.737474l0 126.557063q0 9.737474-9.737474 9.737474l-126.557063 0q-9.737474 0-9.737474-9.737474l0-126.557063q0-9.737474 9.737474-9.737474Z"
        fill="#ECE0C5" p-id="11411"></path>
    <path
        d="M704.318876 704.288776m9.737474 0l126.557063 0q9.737474 0 9.737474 9.737474l0 126.557063q0 9.737474-9.737474 9.737474l-126.557063 0q-9.737474 0-9.737474-9.737474l0-126.557063q0-9.737474 9.737474-9.737474Z"
        fill="#ECE0C5" p-id="11412"></path>
    <path
        d="M836.655212 607.470892h-156.521994V169.344758h156.521994a12.040153 12.040153 0 0 1 12.040154 12.040154V595.385588a12.040153 12.040153 0 0 1-12.040154 12.085304z"
        fill="#1792DC" p-id="11413"></path>
    <path d="M680.163318 607.470892H511.58612V169.329708h168.577198z" fill="#5CD042" p-id="11414"></path>
    <path
        d="M186.968533 169.344758h156.521994v438.141184h-156.521994a12.040153 12.040153 0 0 1-12.040154-12.040154V181.430062a12.040153 12.040153 0 0 1 12.040154-12.085304z"
        fill="#E15116" p-id="11415"></path>
    <path d="M512.037625 607.470892H343.460427V169.329708h168.577198z" fill="#FED317" p-id="11416"></path>
</svg>